<?xml version="1.0" standalone="no"?>
<!DOCTYPE svg PUBLIC "-//W3C//DTD SVG 20010904//EN"
 "http://www.w3.org/TR/2001/REC-SVG-20010904/DTD/svg10.dtd">
<svg version="1.0" xmlns="http://www.w3.org/2000/svg"
 width="474.000000pt" height="474.000000pt" viewBox="0 0 474.000000 474.000000"
 preserveAspectRatio="xMidYMid meet">
<metadata>
Created by potrace 1.11, written by Peter Selinger 2001-2013
</metadata>
<g transform="translate(0.000000,474.000000) scale(0.100000,-0.100000)"
fill="#000000" stroke="none">
<path d="M2070 4734 c0 -6 -19 -11 -42 -12 -64 -1 -133 -13 -136 -23 -2 -5
-11 -9 -20 -9 -9 0 -40 -11 -69 -24 -28 -13 -55 -21 -59 -18 -4 4 -4 1 0 -5 4
-8 2 -13 -7 -13 -7 0 -26 -13 -42 -30 -15 -16 -32 -27 -37 -24 -4 3 -8 1 -8
-3 0 -5 -17 -27 -39 -49 -21 -23 -42 -50 -45 -62 -4 -12 -12 -22 -17 -22 -5 0
-9 -6 -9 -13 0 -12 89 -72 103 -69 4 1 7 -3 7 -9 0 -5 5 -7 10 -4 6 3 10 1 10
-4 0 -6 7 -11 16 -11 8 0 12 -4 9 -10 -3 -5 0 -10 9 -10 8 0 22 -3 32 -7 11
-4 15 -2 11 4 -7 12 85 113 103 113 6 0 8 6 4 13 -4 6 -4 9 1 5 4 -4 25 2 46
12 21 11 47 20 58 20 11 0 22 4 25 8 11 19 271 19 282 0 3 -4 11 -8 17 -8 7 0
6 4 -3 11 -12 9 -11 10 5 4 50 -18 78 -24 86 -20 4 3 9 1 11 -5 1 -5 12 -11
24 -13 24 -3 71 -39 93 -69 12 -18 12 -20 0 -13 -11 7 -12 6 -2 -6 13 -16 15
-176 2 -184 -4 -3 -4 -17 1 -31 6 -14 6 -23 1 -20 -8 5 -22 -73 -21 -121 0
-13 -5 -23 -12 -23 -6 0 -9 -3 -6 -6 4 -3 2 -20 -4 -37 -5 -18 -11 -43 -13
-57 -1 -14 -10 -46 -19 -72 -9 -26 -16 -50 -15 -55 1 -4 0 -10 -1 -13 -1 -3
-4 -18 -6 -35 -3 -16 -9 -31 -15 -33 -5 -2 -9 -8 -9 -13 0 -6 6 -7 13 -3 10 6
10 4 0 -7 -7 -7 -13 -21 -13 -31 0 -10 -4 -18 -10 -18 -5 0 -7 -7 -4 -15 4 -8
2 -21 -4 -28 -5 -6 -12 -28 -16 -47 -3 -19 -7 -42 -9 -50 -2 -8 -7 -32 -12
-52 -4 -21 -11 -38 -15 -38 -5 0 -6 -8 -3 -19 3 -10 0 -22 -6 -25 -6 -4 -11
-23 -11 -42 0 -19 -4 -33 -8 -30 -5 3 -9 0 -9 -7 -1 -29 -14 -91 -22 -101 -4
-6 -9 -18 -10 -26 -4 -46 -14 -89 -20 -86 -3 2 -7 -12 -9 -32 -1 -20 -6 -38
-11 -42 -4 -3 -7 -13 -5 -22 1 -10 -2 -20 -7 -24 -5 -3 -9 -19 -9 -35 0 -17
-4 -28 -8 -25 -4 2 -8 -3 -9 -12 -4 -52 -17 -102 -26 -102 -6 0 -8 -3 -5 -6 4
-3 2 -20 -4 -37 -5 -18 -10 -40 -10 -49 1 -10 -3 -18 -9 -18 -5 0 -8 -3 -8 -7
1 -5 -2 -28 -7 -53 -4 -25 -7 -48 -6 -52 1 -5 -2 -8 -8 -8 -5 0 -10 -11 -10
-23 0 -13 -3 -27 -7 -31 -5 -4 -9 -12 -9 -17 -1 -5 -2 -10 -4 -11 -1 -2 -3
-18 -5 -37 -2 -19 -7 -37 -12 -40 -9 -6 -10 -12 -19 -69 -3 -20 -10 -41 -14
-47 -4 -5 -11 -31 -15 -57 -4 -27 -11 -48 -16 -48 -5 0 -8 -3 -7 -7 1 -5 -1
-21 -5 -38 -4 -16 -9 -39 -11 -50 -2 -11 -10 -33 -16 -50 -7 -16 -14 -43 -17
-60 -3 -16 -10 -36 -15 -42 -6 -7 -7 -13 -3 -13 4 0 1 -8 -6 -17 -9 -10 -9
-14 -2 -10 8 5 7 -2 -2 -20 -8 -15 -15 -37 -15 -49 0 -11 -6 -26 -12 -33 -11
-11 -10 -12 2 -6 13 8 13 6 2 -8 -8 -9 -16 -31 -19 -49 -3 -18 -10 -36 -16
-40 -8 -5 -7 -8 3 -8 12 0 12 -2 2 -9 -7 -4 -14 -18 -15 -29 -1 -12 -5 -22
-10 -22 -4 0 -5 -5 -2 -10 4 -6 1 -17 -5 -25 -7 -8 -10 -15 -7 -15 3 0 1 -15
-4 -32 -6 -18 -12 -37 -13 -43 -2 -5 -7 -29 -11 -53 -4 -23 -11 -42 -15 -42
-3 0 -7 -6 -8 -12 0 -7 -5 -31 -11 -52 -5 -22 -7 -44 -4 -49 3 -6 1 -7 -4 -4
-10 6 -18 -18 -27 -78 -1 -11 -6 -27 -10 -36 -15 -34 -45 -143 -41 -150 3 -4
1 -9 -5 -11 -5 -1 -11 -19 -14 -38 -3 -28 0 -36 13 -37 51 -2 126 -15 135 -21
6 -5 26 -9 45 -10 18 -2 42 -7 52 -13 11 -5 19 -7 19 -5 0 3 18 -1 40 -9 22
-8 40 -12 40 -8 0 3 7 0 15 -7 8 -6 19 -9 25 -5 16 10 12 -22 -6 -39 -8 -9
-12 -16 -8 -16 3 0 1 -7 -6 -15 -7 -8 -17 -12 -23 -8 -5 3 -7 2 -4 -4 3 -5 -7
-25 -24 -44 -16 -19 -32 -42 -35 -51 -3 -10 -10 -18 -15 -18 -5 0 -9 -6 -9
-14 0 -8 -6 -21 -14 -28 -13 -14 -26 -45 -25 -62 0 -5 -4 -12 -11 -16 -6 -4
-12 -17 -13 -28 -1 -12 -5 -22 -10 -22 -4 0 -5 -5 -2 -10 3 -6 3 -15 -1 -22
-12 -19 -14 -87 -3 -94 6 -4 6 -11 -2 -20 -8 -10 -8 -14 -1 -14 6 0 9 -6 6
-14 -3 -8 0 -17 6 -21 9 -6 9 -10 -1 -16 -10 -6 -11 -9 -1 -9 6 0 12 -7 12
-15 0 -8 4 -15 9 -15 5 0 12 -11 15 -25 4 -14 11 -25 16 -25 6 0 10 -6 10 -13
0 -7 18 -24 39 -37 21 -14 36 -29 33 -35 -3 -5 -1 -7 3 -2 5 4 18 1 30 -7 12
-8 38 -18 59 -21 20 -4 36 -10 36 -14 0 -4 7 -8 15 -8 8 0 12 4 9 9 -8 13 10
10 25 -4 8 -7 11 -8 8 -2 -3 6 0 11 8 11 8 0 12 -4 9 -9 -3 -4 2 -8 10 -8 9 0
16 4 16 9 0 6 8 10 18 10 9 0 26 2 37 5 11 2 28 5 38 5 10 1 15 5 12 11 -3 5
2 10 13 10 10 0 31 11 46 25 14 13 26 22 26 18 0 -13 71 75 88 109 11 21 22
35 24 32 5 -4 18 47 17 62 0 4 4 10 10 14 7 3 13 21 14 38 1 18 5 32 8 32 3 0
5 16 4 34 -1 19 2 33 5 31 10 -6 6 98 -4 114 -7 10 -6 12 4 6 9 -5 11 -4 6 3
-7 12 -11 26 -20 84 -7 44 -52 127 -93 172 -29 32 -31 36 -17 50 8 9 13 16 9
16 -3 0 5 11 19 24 15 13 26 29 26 36 0 7 3 10 7 7 3 -4 18 10 32 30 25 37 40
56 93 114 14 16 24 29 21 29 -3 0 11 18 31 40 20 22 36 45 36 51 0 5 5 7 10 4
6 -3 10 1 10 9 0 8 8 20 18 25 9 6 13 11 9 11 -4 0 2 10 14 23 11 12 38 47 59
77 21 30 47 66 59 79 12 13 21 30 21 38 0 8 4 12 8 9 5 -3 16 10 25 29 9 19
21 35 27 35 5 0 10 6 10 14 0 8 7 21 15 29 8 8 24 33 36 56 11 22 26 41 32 41
6 0 8 3 4 6 -3 3 5 24 19 45 13 21 24 43 24 49 0 5 3 10 8 10 8 0 42 73 42 90
0 6 5 10 12 10 6 0 8 3 5 6 -3 4 -1 16 5 28 7 11 11 24 10 28 -1 4 6 22 16 40
18 31 20 32 95 35 76 4 83 1 78 -31 -1 -4 3 -14 9 -21 6 -7 7 -16 2 -19 -5 -3
-9 -30 -10 -61 0 -40 3 -53 11 -48 9 5 9 3 0 -8 -9 -11 -13 -101 -14 -321 -2
-195 -6 -305 -12 -301 -6 4 -7 1 -2 -8 14 -22 15 -60 2 -53 -9 5 -9 4 0 -6 9
-9 9 -19 2 -33 -8 -15 -8 -18 1 -12 9 6 9 2 1 -14 -7 -11 -8 -21 -3 -21 10 0
8 -62 -2 -79 -4 -6 -2 -11 5 -11 9 0 9 -3 0 -14 -9 -10 -9 -16 -1 -21 8 -5 8
-11 -1 -21 -6 -8 -7 -14 -2 -14 5 0 9 -10 10 -22 2 -50 8 -78 16 -78 4 0 6 -4
2 -9 -3 -5 1 -16 9 -24 8 -8 12 -17 9 -21 -4 -3 -1 -6 5 -6 6 0 14 -9 17 -20
4 -11 10 -18 15 -15 4 3 10 -2 14 -10 3 -8 12 -15 21 -15 8 0 15 -4 15 -10 0
-5 18 -13 40 -16 22 -4 38 -9 36 -13 -2 -3 11 -6 29 -6 18 0 31 3 29 7 -5 8
17 5 34 -5 7 -5 12 -4 12 2 0 6 3 10 8 9 12 -3 104 13 121 22 24 13 55 23 64
22 4 -1 7 3 7 8 0 6 9 10 21 10 11 0 17 4 14 10 -3 6 1 7 9 4 9 -3 16 -1 16 5
0 6 7 11 15 11 8 0 15 5 15 11 0 5 5 7 10 4 6 -3 13 1 16 9 3 9 10 13 15 10 5
-3 9 0 9 5 0 6 7 11 16 11 8 0 12 4 9 10 -3 5 -1 10 5 10 6 0 34 24 63 54 63
65 98 106 89 106 -3 0 3 7 14 15 10 8 15 15 9 15 -6 0 -6 3 1 8 14 10 59 85
56 95 -1 4 3 7 8 7 6 0 10 7 10 15 0 8 5 15 10 15 6 0 10 6 10 13 0 7 9 29 20
50 11 20 20 44 20 52 0 8 4 15 9 15 6 0 13 20 17 45 3 25 10 45 15 45 5 0 9 8
9 18 0 10 5 23 12 30 7 7 9 12 6 12 -4 0 0 16 8 35 8 20 12 41 8 47 -4 6 -3 8
3 5 9 -6 21 36 27 95 1 3 4 10 9 14 4 4 7 18 7 31 0 13 4 23 9 23 5 0 7 10 3
23 -6 23 -32 48 -44 41 -3 -2 -42 4 -86 14 -44 11 -85 16 -92 12 -6 -3 -12
-21 -13 -38 -1 -18 -5 -32 -8 -32 -3 0 -6 -6 -7 -12 0 -7 -4 -29 -8 -48 -4
-19 -7 -43 -8 -52 0 -9 -4 -14 -8 -12 -7 4 -11 -7 -7 -18 0 -2 -8 -26 -20 -54
-11 -29 -17 -55 -14 -58 4 -3 1 -6 -5 -6 -7 0 -12 -6 -12 -13 0 -23 -46 -128
-53 -122 -4 3 -5 2 -3 -1 11 -14 -87 -179 -127 -216 -10 -9 -18 -19 -18 -22 0
-3 -11 -18 -24 -32 -14 -15 -25 -24 -25 -20 0 4 -11 -4 -24 -18 -13 -15 -28
-26 -35 -26 -6 0 -11 -5 -11 -11 0 -5 -4 -8 -9 -5 -5 4 -11 3 -13 -1 -5 -12
-76 -43 -98 -43 -10 0 -22 -5 -25 -10 -4 -6 -10 -8 -15 -5 -5 3 -11 1 -15 -5
-3 -5 -11 -10 -16 -10 -6 0 -7 4 -4 10 3 5 1 10 -4 10 -6 0 -11 -5 -11 -10 0
-7 -6 -7 -18 -1 -17 9 -18 27 -16 229 1 121 4 225 8 230 3 6 2 13 -4 17 -6 4
-8 11 -5 16 3 5 7 111 8 236 1 126 6 234 11 242 6 9 5 12 -1 8 -7 -4 -9 11 -8
41 1 26 3 47 5 47 1 0 3 10 4 22 1 12 -1 20 -6 17 -4 -3 -8 0 -8 5 0 6 5 11
10 11 6 0 9 5 8 12 -2 9 44 12 185 11 l187 -1 1 82 c2 109 3 113 11 122 12 12
-12 33 -29 27 -12 -5 -14 -3 -8 7 6 10 4 10 -11 2 -11 -6 -27 -7 -41 -1 -14 5
-23 5 -23 -1 0 -6 -5 -10 -11 -10 -5 0 -8 4 -4 9 3 6 -6 6 -25 1 -19 -5 -28
-5 -25 1 4 5 1 9 -4 9 -6 0 -11 -4 -11 -10 0 -6 -9 -6 -26 0 -14 6 -23 6 -20
1 7 -10 -13 -9 -30 2 -6 3 -14 3 -18 0 -10 -11 -37 -12 -30 -2 3 5 0 9 -5 9
-6 0 -11 -4 -11 -8 0 -5 -7 -9 -15 -9 -8 0 -12 4 -9 9 3 4 0 8 -5 8 -6 0 -11
-6 -11 -12 0 -10 -2 -10 -8 -1 -7 11 -7 214 1 553 1 69 7 131 11 139 6 9 5 12
-1 8 -6 -4 -9 18 -9 58 1 36 4 65 9 65 4 0 7 5 7 11 0 5 -4 7 -10 4 -12 -8
-12 -8 -1 33 6 18 6 30 2 28 -9 -6 -9 97 1 104 4 3 3 22 -1 43 -5 20 -6 37 -2
37 3 0 6 105 6 233 0 127 3 237 8 244 4 6 3 14 -3 18 -8 5 -7 11 1 22 10 11
10 16 0 22 -9 6 -9 15 -2 34 7 18 7 27 0 27 -6 0 -6 7 1 20 8 14 8 20 0 20 -7
0 -7 7 1 21 8 16 8 20 -1 14 -9 -6 -9 -2 0 15 9 18 9 24 0 30 -9 6 -9 9 1 13
12 5 12 6 0 6 -11 1 -11 4 0 17 10 13 10 17 -2 25 -8 5 -9 9 -4 9 20 0 10 39
-12 49 -17 8 -23 7 -23 -2 0 -8 -3 -8 -8 -2 -4 6 -27 11 -52 12 -25 0 -60 3
-77 6 -18 3 -35 1 -39 -4 -3 -5 -8 -7 -12 -5 -6 4 -13 -42 -15 -101 -1 -13 -4
-23 -7 -23 -4 0 -6 -16 -5 -35 1 -19 -1 -35 -4 -35 -3 0 -7 -12 -7 -27 -1 -16
-4 -53 -8 -83 -4 -30 -8 -65 -9 -77 0 -13 -5 -23 -10 -23 -4 0 -5 -5 -1 -11 3
-6 0 -15 -7 -20 -11 -7 -11 -9 -1 -9 7 0 11 -3 9 -7 -3 -5 -8 -26 -12 -48 -4
-22 -8 -47 -10 -55 -8 -36 -19 -126 -16 -134 1 -5 -4 -13 -11 -17 -10 -7 -10
-9 2 -9 10 0 11 -3 4 -8 -10 -6 -24 -86 -27 -149 -1 -13 -5 -23 -9 -23 -4 0
-8 -5 -8 -11 0 -5 6 -7 13 -3 10 6 10 4 0 -7 -7 -7 -13 -26 -13 -42 0 -15 -3
-26 -7 -24 -5 3 -9 -11 -10 -31 -3 -58 -14 -125 -25 -146 -8 -14 -7 -17 4 -10
10 6 11 5 2 -7 -7 -8 -15 -36 -19 -64 -3 -27 -10 -54 -15 -60 -6 -7 -5 -16 3
-25 9 -9 9 -11 0 -6 -7 4 -12 -1 -12 -11 0 -26 -11 -95 -18 -113 -11 -26 -25
-103 -24 -133 0 -9 -5 -15 -10 -11 -6 3 -9 0 -8 -7 3 -12 -7 -67 -17 -104 -12
-41 -16 -62 -16 -78 1 -9 -3 -15 -7 -12 -5 2 -12 -20 -16 -50 -3 -31 -11 -53
-16 -49 -5 3 -9 2 -8 -3 1 -4 1 -17 0 -28 -1 -19 -8 -20 -94 -19 -50 0 -98 -3
-104 -9 -9 -6 -13 -5 -13 3 0 9 -4 9 -17 -1 -14 -12 -16 -12 -8 0 6 11 5 12
-6 5 -21 -13 -39 -14 -39 -1 0 8 -3 8 -9 -1 -4 -7 -12 -12 -17 -11 -25 4 -88
-2 -78 -9 7 -4 12 -43 14 -92 3 -139 2 -134 33 -135 15 -1 27 1 27 5 0 4 7 7
15 7 8 0 15 -4 15 -9 0 -5 9 -4 20 2 15 8 20 8 20 -2 0 -8 3 -9 8 -3 8 13 22
13 41 1 9 -6 12 -5 8 1 -4 6 13 11 43 12 28 1 50 -3 50 -8 0 -13 -33 -75 -45
-83 -5 -4 -6 -8 -2 -8 5 0 -1 -13 -12 -29 -11 -15 -18 -30 -16 -33 3 -3 -4
-13 -15 -23 -11 -10 -20 -24 -20 -32 0 -8 -5 -11 -12 -7 -6 4 -8 3 -5 -3 4 -6
-2 -22 -13 -36 -11 -14 -20 -29 -20 -35 0 -5 -9 -17 -20 -27 -11 -10 -20 -23
-20 -29 0 -6 -13 -25 -30 -42 -16 -18 -26 -35 -23 -38 4 -3 1 -6 -5 -6 -6 0
-13 -8 -16 -17 -4 -10 -20 -34 -37 -53 -17 -19 -38 -47 -47 -62 -9 -15 -20
-28 -24 -28 -4 0 -8 -7 -8 -16 0 -8 -4 -12 -10 -9 -5 3 -10 -1 -10 -10 0 -8
-7 -18 -15 -21 -8 -4 -12 -10 -9 -15 3 -5 0 -9 -5 -9 -6 0 -11 -8 -11 -17 0
-9 -3 -13 -7 -10 -3 4 -20 -12 -37 -36 -17 -24 -37 -49 -44 -57 -36 -42 -52
-64 -52 -72 0 -5 -4 -6 -10 -3 -5 3 -10 0 -10 -8 0 -8 -11 -23 -25 -33 -14
-10 -25 -23 -25 -29 0 -5 -20 -31 -44 -57 -32 -34 -47 -43 -55 -35 -6 6 -11 7
-11 2 0 -6 -4 -4 -9 3 -4 7 -18 14 -29 15 -12 1 -22 4 -22 8 0 4 -16 10 -36
14 -20 3 -48 11 -63 17 -14 6 -29 11 -33 10 -4 -1 -19 3 -34 8 -21 8 -24 14
-16 22 7 7 12 22 12 34 0 13 4 25 9 28 5 3 12 26 15 51 4 24 12 47 18 51 7 4
5 9 -3 15 -9 5 -9 9 -3 9 7 0 15 17 20 37 8 43 8 42 17 63 7 16 18 66 19 88 1
6 6 12 11 12 6 0 8 2 5 6 -3 3 1 26 9 52 8 26 17 58 19 71 3 14 8 29 12 35 3
6 8 20 10 31 2 11 5 27 7 35 2 8 4 23 4 33 1 10 5 16 9 13 4 -2 9 5 10 17 3
35 7 51 13 62 4 6 5 18 4 28 -2 9 1 15 6 11 5 -3 9 6 9 20 0 14 4 26 9 26 4 0
7 11 6 25 -2 14 0 25 4 25 4 0 8 11 9 25 1 14 9 40 18 56 8 17 11 28 6 25 -6
-3 -2 18 9 46 11 29 22 64 25 78 7 36 12 55 14 58 3 2 3 2 14 52 5 19 13 41
20 49 9 12 8 13 -4 6 -12 -7 -13 -6 -4 6 9 11 26 62 24 71 0 2 8 29 19 61 11
32 20 62 19 65 -2 16 15 72 22 72 4 0 7 6 7 13 -1 24 16 98 24 103 5 3 9 18 9
35 0 16 4 29 9 29 4 0 6 11 3 25 -2 14 0 25 5 25 5 0 10 11 11 26 1 14 7 34
12 45 6 11 8 24 5 29 -3 5 0 12 6 15 5 4 8 13 5 21 -3 7 -1 16 5 19 5 4 7 11
4 16 -4 5 -1 9 5 9 7 0 10 6 7 14 -3 8 -3 17 1 20 7 8 12 32 14 63 0 13 4 21
8 18 4 -2 10 16 14 42 3 25 12 53 19 61 9 12 9 14 0 9 -8 -5 -8 1 2 19 8 15
12 31 9 36 -3 4 -1 8 4 8 5 0 8 10 7 23 -1 12 2 24 6 27 5 3 9 20 11 38 1 18
5 32 9 32 4 0 6 11 3 25 -2 14 0 25 6 25 5 0 10 11 10 24 0 14 4 27 9 30 4 3
11 28 15 55 4 27 12 52 19 54 8 4 8 6 1 6 -8 1 -7 14 3 44 9 23 15 54 15 70 0
15 3 25 8 22 4 -3 11 14 14 38 8 60 14 92 16 92 1 0 4 13 6 29 3 16 10 38 16
49 8 15 7 18 -4 11 -9 -6 -9 -3 2 11 20 24 22 396 3 402 -7 3 -13 11 -13 20 0
8 -9 27 -20 43 -11 15 -16 31 -12 35 4 5 3 6 -3 3 -5 -4 -21 9 -35 28 -14 18
-34 34 -44 34 -11 0 -16 3 -13 6 6 6 -99 64 -112 62 -6 -1 -24 5 -69 23 -18 7
-21 6 -16 -3 6 -10 5 -10 -7 -1 -8 6 -43 15 -79 19 -87 9 -83 9 -97 17 -6 4
-15 3 -18 -3 -5 -8 -11 -7 -21 1 -10 8 -14 8 -14 0 0 -6 -5 -11 -11 -11 -5 0
-8 3 -6 8 3 4 -6 7 -19 7 -13 0 -24 -4 -24 -10 0 -5 -5 -3 -10 5 -5 8 -10 10
-10 4z m1295 -2161 c-1 -38 -4 -74 -8 -80 -4 -6 -3 -14 3 -18 6 -4 7 -12 1
-24 -6 -10 -6 -23 -1 -31 5 -9 5 -19 -2 -27 -7 -9 -7 -13 2 -13 10 0 10 -3 1
-14 -9 -10 -9 -16 -1 -21 8 -5 8 -11 1 -19 -7 -9 -7 -16 1 -24 7 -7 8 -12 2
-13 -5 0 -28 -2 -51 -5 -38 -4 -43 -3 -43 15 0 11 4 22 9 25 4 3 8 16 7 28 -1
13 2 25 6 28 4 3 8 20 10 38 1 18 6 32 10 32 4 0 8 10 8 23 0 13 6 29 13 36
10 11 10 13 0 7 -7 -4 -13 -2 -13 3 0 6 4 11 9 11 5 0 12 27 16 60 9 79 21 69
20 -17z m-1106 -1916 c6 -8 8 -17 4 -20 -3 -4 -1 -7 6 -7 7 0 9 -4 6 -10 -3
-5 -1 -10 4 -10 6 0 11 -13 11 -30 0 -17 5 -30 13 -30 7 0 8 -3 2 -8 -12 -8
-14 -72 -2 -72 4 0 5 -6 0 -12 -4 -7 -9 -23 -11 -35 -1 -12 -9 -34 -17 -50 -8
-15 -15 -34 -15 -41 0 -7 -4 -10 -10 -7 -5 3 -10 -1 -10 -9 0 -8 -16 -27 -35
-41 -32 -25 -72 -33 -115 -23 -20 4 -50 38 -50 55 0 8 -4 12 -8 9 -7 -4 -8 25
-3 42 1 1 1 5 2 10 1 4 10 24 20 45 11 20 16 37 12 37 -5 0 1 7 11 15 11 8 17
15 13 15 -4 0 1 9 11 20 9 11 25 29 35 40 9 11 17 22 17 25 0 11 82 105 91
105 4 0 12 -6 18 -13z"/>
<path d="M1085 4403 c-27 -19 -57 -39 -65 -46 -8 -7 -42 -30 -75 -52 -33 -22
-61 -43 -63 -47 -2 -5 -8 -8 -13 -8 -5 0 -18 -8 -29 -17 -11 -10 -32 -28 -47
-40 -66 -52 -109 -89 -116 -100 -4 -7 -15 -13 -24 -13 -9 0 -13 -3 -10 -6 4
-4 -10 -20 -30 -35 -20 -16 -33 -29 -31 -29 3 0 -18 -24 -46 -54 -28 -29 -58
-64 -66 -76 -8 -12 -21 -28 -27 -36 -7 -7 -13 -17 -13 -23 0 -6 -4 -11 -8 -11
-5 0 -22 -26 -38 -57 -16 -32 -32 -59 -36 -61 -5 -2 -8 -12 -8 -22 0 -10 -4
-20 -10 -22 -9 -3 -18 -34 -19 -71 -1 -12 -5 -16 -13 -11 -8 5 -7 0 2 -11 9
-11 10 -16 3 -11 -9 5 -13 0 -14 -16 0 -13 -3 -43 -6 -68 -3 -25 -6 -69 -7
-97 0 -29 -3 -53 -6 -53 -3 0 -5 -27 -5 -59 0 -33 3 -57 7 -55 4 2 6 -13 6
-33 0 -21 3 -49 6 -63 3 -13 7 -39 8 -57 1 -18 5 -33 9 -33 6 0 24 -97 20
-113 -1 -5 3 -6 9 -2 6 4 10 -5 10 -20 0 -17 4 -24 12 -19 6 4 8 3 5 -3 -6 -9
11 -71 23 -83 5 -5 29 -67 33 -85 1 -5 8 -16 15 -23 7 -8 10 -18 7 -23 -4 -5
-1 -9 4 -9 6 0 11 -7 11 -15 0 -8 4 -15 10 -15 5 0 7 -6 4 -13 -3 -8 2 -20 10
-27 9 -7 14 -16 11 -20 -3 -4 2 -10 10 -14 8 -3 15 -1 15 4 0 6 3 10 8 9 14
-2 52 13 52 21 0 5 14 11 30 15 17 4 30 10 30 15 0 5 13 11 29 15 36 8 46 31
26 61 -8 13 -15 30 -15 39 0 8 -4 15 -9 15 -8 0 -22 32 -25 55 -1 6 -7 16 -14
23 -7 8 -10 18 -7 23 4 5 1 9 -5 9 -6 0 -9 4 -6 9 4 5 2 11 -4 13 -5 1 -11 15
-12 30 -1 15 -6 24 -10 22 -4 -3 -9 2 -9 10 -2 17 -5 33 -9 41 -1 3 -4 10 -5
15 -1 6 -3 11 -5 13 -3 3 -9 28 -16 67 -3 19 -11 38 -17 42 -8 5 -7 8 3 8 10
0 11 3 3 8 -7 4 -13 43 -16 93 -2 48 -7 91 -11 97 -3 6 -2 13 2 16 5 3 10 31
11 63 2 32 3 64 4 71 0 6 4 12 8 12 4 0 6 7 5 16 -7 48 117 276 139 256 5 -4
5 -2 2 5 -4 6 30 49 81 100 143 143 180 167 162 104 -4 -15 -4 -34 0 -41 4 -7
4 -25 0 -40 -4 -15 -4 -33 0 -40 5 -7 4 -24 0 -36 -6 -14 -5 -26 0 -29 6 -4 7
-13 1 -24 -6 -10 -6 -23 -1 -31 5 -8 5 -21 1 -29 -6 -16 -6 -38 2 -93 2 -16 0
-28 -6 -28 -5 0 -3 -8 4 -17 12 -15 12 -16 -1 -8 -12 7 -13 6 -3 -6 7 -9 8
-20 3 -29 -5 -8 -5 -21 0 -30 5 -9 5 -21 1 -28 -7 -11 -6 -34 2 -94 2 -16 0
-28 -6 -28 -5 0 -3 -8 4 -17 12 -15 12 -16 -1 -8 -12 7 -13 6 -3 -6 7 -9 8
-20 3 -29 -5 -8 -5 -21 0 -31 5 -9 7 -19 4 -22 -9 -8 -11 -66 -3 -61 7 4 2
-83 -6 -95 -2 -4 0 -13 5 -21 5 -8 4 -22 -2 -33 -6 -13 -6 -17 0 -13 6 4 8
-11 5 -42 -3 -26 -5 -53 -4 -59 1 -14 1 -36 0 -55 0 -7 2 -25 4 -40 2 -16 0
-28 -6 -28 -5 0 -3 -8 4 -17 12 -15 12 -16 -1 -8 -12 7 -13 6 -3 -6 7 -9 8
-20 3 -29 -5 -8 -5 -21 0 -30 5 -9 5 -21 1 -28 -7 -11 -6 -34 2 -94 2 -16 0
-28 -4 -28 -5 0 -9 -5 -9 -11 0 -5 3 -8 8 -6 4 3 7 -10 7 -29 0 -19 -4 -34 -9
-34 -5 0 -2 -8 5 -17 12 -15 12 -16 -1 -8 -12 7 -13 6 -3 -6 7 -9 8 -20 3 -29
-5 -8 -5 -21 0 -30 5 -9 5 -21 1 -28 -7 -11 -6 -34 2 -94 2 -16 0 -28 -6 -28
-5 0 -3 -8 4 -17 12 -15 12 -16 -1 -8 -12 7 -13 6 -3 -6 7 -9 8 -20 3 -29 -5
-8 -5 -21 0 -30 5 -9 5 -21 1 -28 -7 -11 -6 -34 2 -94 2 -16 0 -28 -6 -28 -5
0 -3 -8 4 -17 12 -15 12 -16 -1 -8 -12 7 -13 6 -3 -6 7 -9 8 -20 3 -29 -5 -8
-5 -21 0 -30 5 -9 5 -21 1 -28 -7 -11 -6 -34 2 -94 2 -16 0 -28 -6 -28 -5 0
-3 -8 4 -17 12 -15 12 -16 -1 -8 -12 7 -13 6 -3 -6 7 -9 8 -20 3 -29 -5 -8 -5
-21 0 -30 5 -9 5 -22 0 -30 -4 -7 -4 -24 1 -37 5 -14 5 -22 0 -19 -5 3 -14 -1
-21 -8 -6 -8 -24 -18 -40 -21 -16 -3 -31 -13 -34 -21 -3 -8 -12 -14 -21 -14
-8 0 -15 -5 -15 -11 0 -5 -4 -7 -10 -4 -5 3 -10 2 -10 -2 0 -5 -14 -17 -30
-27 -17 -9 -41 -27 -54 -39 -50 -45 -65 -55 -72 -49 -4 4 -4 2 -1 -4 4 -7 -4
-23 -18 -35 -35 -33 -98 -146 -89 -160 4 -8 3 -9 -4 -5 -8 5 -12 -2 -12 -18 0
-14 -4 -26 -8 -26 -5 0 -9 -19 -11 -42 -1 -24 -3 -58 -5 -76 -1 -19 3 -45 10
-58 7 -14 8 -22 3 -18 -6 3 -4 -7 5 -24 8 -16 12 -32 9 -36 -4 -3 0 -6 7 -6 7
0 11 -3 7 -6 -3 -4 -1 -12 6 -20 7 -7 26 -31 42 -52 17 -22 39 -44 50 -50 54
-29 108 -52 130 -55 13 -1 27 -6 31 -10 4 -4 13 -2 21 4 9 9 13 8 13 0 0 -6 5
-11 11 -11 5 0 7 5 3 11 -4 7 1 7 16 -1 17 -9 21 -9 15 0 -4 7 -2 10 6 9 24
-4 89 13 89 23 0 5 5 6 10 3 6 -3 10 -1 10 4 0 6 5 11 11 11 13 0 82 76 77 84
-2 3 6 12 17 20 11 9 16 16 11 16 -5 0 -3 7 4 15 7 8 9 15 4 15 -5 0 -3 4 5 9
8 5 15 20 17 33 1 12 3 23 4 23 1 0 3 7 5 15 2 8 8 29 13 45 5 17 8 38 6 48
-1 9 1 17 5 17 4 0 7 19 6 43 -1 23 3 48 9 55 7 9 6 16 -3 22 -9 5 -10 10 -3
14 13 8 13 84 0 92 -5 3 -4 12 3 21 10 12 10 16 -2 24 -11 7 -11 9 -1 9 8 0
13 10 12 23 -5 53 -5 53 90 87 19 7 50 19 68 27 18 8 42 15 52 16 11 1 20 5
20 10 0 4 4 6 9 2 5 -3 12 -1 16 5 4 6 11 7 17 4 7 -5 9 4 4 27 -3 19 -7 40
-8 47 -1 6 -5 12 -10 12 -4 0 -8 14 -8 31 0 16 -4 28 -8 25 -5 -3 -8 8 -7 24
1 17 -2 30 -7 30 -4 0 -8 7 -8 15 0 16 -35 21 -45 5 -3 -5 -12 -7 -20 -3 -8 3
-15 1 -15 -4 0 -5 -6 -10 -12 -11 -46 -6 -77 -16 -72 -23 4 -8 -8 -10 -53 -9
-5 0 -7 18 -6 40 1 22 -2 42 -8 45 -5 4 -6 12 -2 18 11 17 13 136 2 143 -5 3
-6 11 -2 17 11 17 13 136 2 143 -5 3 -6 11 -2 17 11 17 11 377 1 383 -5 3 -3
12 3 21 10 12 10 16 -2 24 -10 6 -10 9 -1 9 16 0 16 32 0 49 -7 8 -8 11 -2 8
12 -7 14 357 2 369 -4 4 -3 14 4 21 9 11 9 17 -3 24 -10 6 -10 9 -1 9 6 0 12
8 12 18 0 10 -6 24 -12 31 -7 8 -8 11 -2 8 12 -7 14 357 2 369 -4 4 -3 14 4
21 9 11 9 17 -3 24 -10 6 -10 9 -1 9 6 0 12 8 12 18 0 10 -6 24 -12 31 -7 8
-8 11 -2 8 12 -7 14 357 2 369 -4 4 -3 14 4 21 9 11 9 17 -3 24 -10 6 -10 9
-1 9 6 0 12 8 12 18 0 10 -6 24 -12 31 -7 8 -8 11 -2 8 11 -6 14 356 2 368 -4
4 -2 16 5 26 22 36 -7 37 -58 2z m-168 -3159 c0 -7 -5 -10 -11 -7 -6 4 -5 -1
3 -10 7 -9 10 -17 5 -17 -5 0 -10 -26 -11 -58 -2 -85 -6 -122 -14 -122 -4 0
-6 -6 -6 -12 2 -25 -15 -88 -24 -88 -5 0 -9 -7 -9 -15 0 -8 -5 -15 -11 -15 -5
0 -7 -4 -4 -10 6 -9 -35 -16 -60 -10 -5 1 -17 3 -25 4 -23 4 -52 51 -52 87 -1
53 11 112 25 121 6 4 12 12 12 17 0 5 11 19 24 30 13 12 21 21 16 21 -4 0 21
22 55 48 63 49 87 59 87 36z"/>
</g>
</svg>
